<svg xmlns="http://www.w3.org/2000/svg" viewBox="0 0 792 248.498">
  <defs>
    <style>
      .a {
        fill: #ed1c24;
      }
    </style>
  </defs>
  <title>union_icons</title>
  <g>
    <path class="a" d="M33.07134,248.49783h91.00928a47.25817,47.25817,0,0,0-91.00928,0"/>
    <path class="a" d="M143.07931,248.49783h91.00622a47.25615,47.25615,0,0,0-91.00622,0"/>
    <polygon class="a" points="248.619 98.447 248.619 -0.001 0.121 -0.001 0.121 248.497 18.538 248.497 18.538 206.55 18.538 203.328 18.538 189.487 248.619 189.487 248.619 184.836 79.424 184.836 79.424 151.66 248.619 151.66 248.619 147.008 18.538 147.008 18.538 98.447 248.619 98.447"/>
    <path class="a" d="M792.11911,98.44837V0.00017H543.618v248.498H667.43229V237.66049H792.11911v-4.6543h-28.242v-12.683h28.242v-4.6543h-28.242v-12.683h28.242v-4.6543h-28.242v-12.683h28.242v-4.6543h-28.242v-12.683h28.242V163.66h-28.242V150.974h28.242V146.3227h-28.242v-12.683h28.242v-4.65727h-28.242V116.18385h28.242V111.5327H667.43229V98.44837H792.11911ZM667.43229,220.3232h27.31777v12.683H667.43229v-12.683Zm0-17.33729h27.31777v12.683H667.43229v-12.683Zm0-17.33729h27.31777v12.683H667.43229v-12.683Zm0-17.33729h27.31777v12.683H667.43229v-12.683Zm0-17.33729h27.31777v12.683H667.43229V150.974Zm0-17.33432h27.31777v12.683H667.43229v-12.683Zm32.10882,34.67162h27.31777v12.683H699.54111v-12.683Zm0-17.33729h27.31777v12.683H699.54111V150.974Zm0,34.67458h27.31777v12.683H699.54111v-12.683Zm27.31758-39.32592H699.54092v-12.683h27.31777v12.683Zm-27.31758,56.66321h27.31777v12.683H699.54111v-12.683Zm32.11179,0h27.32074v12.683H731.65289v-12.683Zm0-17.33729h27.32074v12.683H731.65289v-12.683Zm0-17.33729h27.32074v12.683H731.65289v-12.683Zm0-17.33729h27.32074v12.683H731.65289V150.974Zm0-17.33432h27.32074v12.683H731.65289v-12.683ZM699.54111,220.3232h27.31777v12.683H699.54111v-12.683Zm32.11179,0h27.32074v12.683H731.65289v-12.683Zm27.32074-91.34076H731.65289V116.18385h27.32074v12.79859Zm-32.11494,0H699.54092V116.18385h27.31777v12.79859Zm-32.10863,0H667.43229V116.18385h27.31777v12.79859Z"/>
    <path class="a" d="M492.92892,141.034a27.10411,27.10411,0,0,0-3.9764-3.28013l1.80576-1.45006a27.05431,27.05431,0,0,0-38.2861,0l1.84222,1.48049a27.09475,27.09475,0,0,0-3.93372,3.2497l3.05821,2.45945a22.69633,22.69633,0,0,1,6.26245-4.44445l-1.42882-2.62663a22.73993,22.73993,0,0,1,26.74312.03952l-1.40748,2.5871a22.75555,22.75555,0,0,1,6.26551,4.44445Z"/>
    <rect class="a" x="459.3089" y="142.99693" width="24.66683" height="2.32567"/>
    <polygon class="a" points="520.369 151.088 520.369 -0.002 271.871 -0.002 271.871 248.5 395.652 248.5 395.652 186.908 448.056 181.965 448.056 248.5 448.643 248.5 451.78 248.5 452.707 248.5 452.707 181.528 471.142 179.789 471.139 179.758 472.194 179.758 472.197 179.758 472.194 179.789 490.525 181.518 490.525 248.5 491.504 248.5 494.639 248.5 495.18 248.5 495.18 181.956 520.369 184.334 520.369 179.983 477.59 175.937 477.59 174.317 474.365 174.317 474.365 173.165 472.881 173.165 472.194 173.165 468.969 173.165 468.969 174.317 465.743 174.317 465.743 175.937 395.68 182.57 395.68 165.993 412.88 163.272 412.88 152.809 431.461 149.699 431.461 138.572 449.996 134.726 449.996 112.577 471.665 98.447 492.93 112.577 492.93 134.726 512.14 138.624 512.14 149.699 520.369 151.088"/>
    <rect class="a" x="461.05083" y="147.00682" width="21.23456" height="21.23456"/>
  </g>
</svg>
