<?xml version="1.0" encoding="utf-8"?>
<!-- Generator: Adobe Illustrator 22.0.1, SVG Export Plug-In . SVG Version: 6.00 Build 0)  -->
<svg version="1.1" id="Layer_1" xmlns="http://www.w3.org/2000/svg" xmlns:xlink="http://www.w3.org/1999/xlink" x="0px" y="0px"
	 viewBox="0 0 72.1 72.1" style="enable-background:new 0 0 72.1 72.1;" xml:space="preserve">
<style type="text/css">
	.st0{fill:#ED1C24;}
</style>
<g>
	<path class="st0" d="M9.6,72.1H36c-1.6-5.8-6.9-10-13.2-10C16.5,62.1,11.2,66.3,9.6,72.1z"/>
	<path class="st0" d="M41.5,72.1h26.4c-1.6-5.8-6.9-10-13.2-10C48.4,62.1,43.1,66.3,41.5,72.1z"/>
	<polygon class="st0" points="72.1,28.6 72.1,0 0,0 0,72.1 5.3,72.1 5.3,59.9 5.3,59 5.3,55 72.1,55 72.1,53.6 23,53.6 23,44
		72.1,44 72.1,42.6 5.3,42.6 5.3,28.6 	"/>
</g>
</svg>
