<svg xmlns="http://www.w3.org/2000/svg" viewBox="0 0 298.89251 55.11739">
  <defs>
    <style>
      .a, .d, .m, .o, .q {
        fill: #502929;
      }

      .b, .c, .e, .f, .g, .h, .i, .j, .n, .p {
        fill: none;
      }

      .b, .e, .j, .k, .n {
        stroke: #502929;
      }

      .b, .k, .l, .m {
        stroke-width: 0.1822px;
      }

      .c, .d, .f, .g, .h, .i, .m, .o, .p {
        stroke: #502929;
      }

      .c {
        stroke-width: 0.2731px;
      }

      .d, .f, .g, .h {
        stroke-linejoin: round;
      }

      .d, .g {
        stroke-width: 0.1093px;
      }

      .e, .h {
        stroke-width: 0.1641px;
      }

      .f {
        stroke-width: 0.1366px;
      }

      .i, .j {
        stroke-width: 0.6016px;
      }

      .k, .l {
        fill: #fff;
      }

      .l {
        stroke: #fff;
      }

      .n {
        stroke-width: 1.0929px;
      }

      .o {
        stroke-width: 0.045px;
      }

      .p {
        stroke-width: 0.5466px;
      }
    </style>
  </defs>
  <title>blklogo [Converted]</title>
  <g>
    <path class="q" d="M294.73729,424.63571H292.125v1.5401h12.55569v-1.5283h-2.8584a0.9448,0.9448,0,0,1-1.0264-1.167l0.0117-19.9131c0-1.7481-.584-7.8223-7.4678-7.8223-6.8945,0-8.8154,5.4297-9.9306,7.0664l-0.2305-.0058-0.0215-6.0088c0-.7002.1192-1.04591-1.3261-0.583-1.45709.4687-5.7188,0.334-8.0508,0.334v1.04h3.3086c0.70111,0,.9209.1045,0.9209,0.9756v25.0927c0,0.876-.21979.9795-0.9209,0.9795h-2.6104v1.5401h12.5498v-1.5283h-2.9492c-0.87209,0-.9297-0.1192-0.9297-0.9356v-15.8203c0-3.3887,2.9473-10.1572,8.6651-10.1572,4.3232,0,3.872,5.7217,3.872,5.7217l-0.0254,19.9658C295.66109,424.29491,295.43949,424.63571,294.73729,424.63571Z" transform="translate(-154.76995 -376.93106)"/>
    <path class="q" d="M223.65529,385.876a0.89166,0.89166,0,0,0-1.0791-1.085h-3.211v-1.30469h17.5127c0.99811,0,11.4453-.0556,11.4453,9.3418,0,9.4004-9.0498,10.3028-10.6845,10.71289v0.17681a12.86933,12.86933,0,0,1,5.8965,3.0049c2.8017,2.8798,3.3281,4.5556,3.3281,9.8056,0,5.2588.4072,8.293,3.38771,8.293,2.97359,0,3.85149-1.69531,4.78509-2.5059l0.8174,1.1651a9.17644,9.17644,0,0,1-6.3056,3.1494,8.85336,8.85336,0,0,1-6.8321-3.2637c-2.625-2.86521-2.2314-8.2764-2.2314-12.1348,0-4.1396-3.7803-7.27341-6.7022-7.27341h-3.3271a0.735,0.735,0,0,0-.8447.85161v18.8906c0,0.8184.0595,0.9355,0.9365,0.9355h3.3554V426.167h-14.5957v-1.51949h3.4297c0.6983,0,.919-0.1036.919-0.9766V385.876Zm11.999,16.51951c3.0352,0,6.88771-1.39451,6.88771-8.8096,0-7.413-3.794-8.7763-6.12891-8.7763h-5.9717a0.7288,0.7288,0,0,0-.8447.8427V401.543a0.7299,0.7299,0,0,0,.8447.84271Z" transform="translate(-154.76995 -376.93106)"/>
    <path class="q" d="M380.61429,423.73541c0,0.8173.0605,0.93159,0.9355,0.93159h3.4941v1.53221h-14.288v-1.541h3.7978c0.7022,0,.9258-0.1025.9258-0.9785v-37.0518a0.98568,0.98568,0,0,0-1.1406-1.1386h-4.0576v-1.1631c5.8544,0,7.8818-.2569,10.333-0.9307v40.3399Z" transform="translate(-154.76995 -376.93106)"/>
    <path class="q" d="M447.98539,399.05571c-0.1485,1.23429.3193,3.8056,2.75,3.8056a2.75411,2.75411,0,0,0,2.9179-2.6279c0.05471-.8789,0-4.6113-4.209-4.6113-3.4951,0-6.1259,4.084-7.5879,6.8818h-0.2773v-6.0986a0.28633,0.28633,0,0,0-.4238-0.3028,65.18615,65.18615,0,0,1-9.9356.5889v1.1924c1.1416-.0215,4.0742.1787,4.0742,0.1787a0.97972,0.97972,0,0,1,1.1338,1.1367l-0.0029,24.4805c0,0.876-.21679.9785-0.9141,0.9785H432.083v1.541h14.53319V424.667h-4.1113c-0.87889,0-.9375-0.11429-0.9375-0.93159v-15.8233c0-4.207,3.1924-8.5137,5.2363-9.3076C447.45019,398.38481,448.05959,398.32711,447.98539,399.05571Z" transform="translate(-154.76995 -376.93106)"/>
    <path class="q" d="M400.52729,421.56741c-0.06929.1113-.2021,0.2461-0.3515,0.4492a11.1005,11.1005,0,0,1-8.6475,4.3232c-2.2158,0-7.69429-1.9863-7.69429-7.708,0-8.0527,11.20309-10.3886,15.40329-10.3886,0.9385,0,.9385-0.583.9385-1.4034v-6.7734c0-1.1719.2344-3.9697-4.7901-3.9697-5.0234,0-7.0078,2.4551-7.4746,2.9209-0.4668.4687-1.165,1.0488,0.1211,1.52239a2.61571,2.61571,0,0,1,1.75,2.68171,1.99257,1.99257,0,0,1-1.9843,2.0976,2.73034,2.73034,0,0,1-2.88089-2.8418c0-6.18451,8.13379-7.5439,11.75779-7.5439,3.61821,0,8.28221,1.1631,8.28221,5.9531v19.3799s-0.22951,2.918,1.98729,2.918c2.22071,0,2.8643-2.2735,3.6211-4.3799H411.499c-0.49511,2.6572-3.03121,7.418-6.41891,7.418-3.3838,0-4.20709-3.3838-4.20709-3.9698a5.84327,5.84327,0,0,0-.03411-0.6884Zm-6.0732,2.2031c3.9746,0,5.7217-4.0869,5.7217-5.8359v-7.4737s0.3447-1.0517-1.4014-1.0517c-6.539,0-10.5058,3.2666-10.5058,7.9394A6.32659,6.32659,0,0,0,394.45409,423.77051Z" transform="translate(-154.76995 -376.93106)"/>
    <path class="q" d="M304.46,416.29981h1.01949c0.4707,1.9863,3.6328,9.583,9.9961,9.583,6.3652,0,6.9473-6.0234,6.9473-7.0166s0.1152-4.3213-6.8916-5.2539c-7.0049-.9365-11.1495-3.9707-11.1495-9.166a9.07008,9.07008,0,0,1,9.28621-9.3428,7.2716,7.2716,0,0,1,6.249,3.041h0.28419l1.3467-2.1591h0.6865v8.3437h-0.9258c-0.4033-1.86911-2.4463-8.1348-7.583-8.1348a6.51364,6.51364,0,0,0-6.6543,6.5733c0,4.6699,8.0498,3.5449,12.2012,5.2969,4.10151,1.7314,5.4277,5.1386,5.4277,8.64249,0,3.26661-1.6953,10.27741-9.3447,10.27741a11.79175,11.79175,0,0,1-7.8174-3.3291l-2.3389,2.51169h-0.7431Z" transform="translate(-154.76995 -376.93106)"/>
    <path class="q" d="M274.50489,416.40531c-1.8653,6.6181-5.0967,10.5732-11.2695,10.5732a11.26373,11.26373,0,0,1-9.0909-4.541,18.16738,18.16738,0,0,1-3.8222-11.1328c0-8.6748,5.5088-16.7022,12.2881-16.7022a12.0351,12.0351,0,0,1,11.8291,11.7676c0,0.3526.0429,1.5508,0.0429,1.5508l-17.3301.0088a0.73259,0.73259,0,0,0-.8447.8496v7.8721c0,2.4472.876,8.8828,7.8223,8.8828,6.5078,0,8.4355-7.0694,9.2978-9.4541Zm-5.4473-13.24031c0-1.69529-.7217-7.48429-6.3887-7.48429-5.4306,0-6.375,5.32029-6.375,7.48429v2.34571a0.73261,0.73261,0,0,0,.8477.8457H268.208a0.73162,0.73162,0,0,0,.84569-0.8457Z" transform="translate(-154.76995 -376.93106)"/>
    <path class="q" d="M325.93749,416.29981h1.0186c0.4648,1.9863,3.623,9.583,9.9882,9.583,6.3692,0,6.9512-6.0234,6.9512-7.0166s0.1211-4.3213-6.89549-5.2539c-7.00291-.9365-11.14361-3.9707-11.14361-9.166a9.0704,9.0704,0,0,1,9.2803-9.3428,7.26085,7.26085,0,0,1,6.2432,3.041h0.2969l1.3418-2.1591h0.6845v8.3437h-0.915c-0.41209-1.86911-2.457-8.1348-7.5986-8.1348a6.50778,6.50778,0,0,0-6.6446,6.5733c0,4.6699,8.0537,3.5449,12.1963,5.2969,4.1016,1.7314,5.4317,5.1386,5.4317,8.64249,0,3.26661-1.6963,10.27741-9.3418,10.27741a11.80293,11.80293,0,0,1-7.8243-3.3291l-2.332,2.51169h-0.7422Z" transform="translate(-154.76995 -376.93106)"/>
    <path class="q" d="M372.37009,416.40531c-1.86909,6.6181-5.0976,10.5732-11.2637,10.5732a11.25459,11.25459,0,0,1-9.0947-4.541,18.20129,18.20129,0,0,1-3.8262-11.1328c0-8.6748,5.5079-16.7022,12.293-16.7022a12.032,12.032,0,0,1,11.8272,11.7676c0,0.3526.0449,1.5508,0.0449,1.5508l-17.332.0088a0.73753,0.73753,0,0,0-.85059.8496v7.8721c0,2.4472.87889,8.8828,7.82909,8.8828,6.50291,0,8.539-7.1035,9.2968-9.4541Zm-5.4453-13.24031c0-1.69529-.7324-7.48429-6.3867-7.48429-5.4336,0-6.3789,5.32029-6.3789,7.48429v2.34571a0.7316,0.7316,0,0,0,.8467.8457h11.0683a0.73429,0.73429,0,0,0,.8487-0.8457Z" transform="translate(-154.76995 -376.93106)"/>
    <path class="q" d="M432.82909,416.40531c-1.8623,6.6181-5.0967,10.5732-11.2725,10.5732a11.24475,11.24475,0,0,1-9.0888-4.541,18.14546,18.14546,0,0,1-3.8184-11.1328c0-8.6748,5.5078-16.7022,12.2803-16.7022a12.03463,12.03463,0,0,1,11.8301,11.7676c0,0.3526.0439,1.5508,0.0439,1.5508l-17.3291.0088a0.73159,0.73159,0,0,0-.8447.8496v7.8721c0,2.4472.87111,8.8828,7.8183,8.8828,6.5039,0,8.5479-7.1035,9.2989-9.4541Zm-5.4512-13.24031c0-1.69529-.7207-7.48429-6.3828-7.48429-5.4355,0-6.3818,5.32029-6.3818,7.48429v2.34571a0.73489,0.73489,0,0,0,.8496.8457h11.0693a0.73069,0.73069,0,0,0,.84281-0.8457Z" transform="translate(-154.76995 -376.93106)"/>
  </g>
  <g>
    <path class="a" d="M175.2266,424.80181a0.80915,0.80915,0,0,1-.5254,1.5205A0.80892,0.80892,0,0,1,175.2266,424.80181Z" transform="translate(-154.76995 -376.93106)"/>
    <path class="a" d="M179.1182,428.543l-1.9063-.33109,0.0215-.1308c0.5889,0.1015.6396-.1153,0.7012-0.4639l0.3759-2.1768c0.0245-.1347.0665-0.3838-0.1337-0.4199a1.76181,1.76181,0,0,0-.4366.0713l0.0264-.1494,1.3828-.3926,0.0889,0.0147-0.5567,3.2138c-0.0634.3779-.0439,0.5371,0.46,0.6299Z" transform="translate(-154.76995 -376.93106)"/>
    <path class="a" d="M182.2666,425.64751a0.88845,0.88845,0,0,1-.7393.7568,1.48374,1.48374,0,0,1,.709,1.26269,1.10277,1.10277,0,0,1-1.2734,1.09761,0.9777,0.9777,0,0,1-.2041-1.9414,1.29723,1.29723,0,0,1-.6592-1.0986,1.0196,1.0196,0,0,1,1.2217-.9609A0.85341,0.85341,0,0,1,182.2666,425.64751Zm-0.8594.64549a1.0001,1.0001,0,0,0,.2442-0.64459,0.58046,0.58046,0,0,0-.4229-0.7265,0.44864,0.44864,0,0,0-.4443.4453A1.19873,1.19873,0,0,0,181.4072,426.293Zm-0.3984,2.29391a0.56109,0.56109,0,0,0,.4951-0.6474,1.2392,1.2392,0,0,0-.6377-1.0079,1.41247,1.41247,0,0,0-.3066.8389A0.66339,0.66339,0,0,0,181.0088,428.58691Z" transform="translate(-154.76995 -376.93106)"/>
    <path class="a" d="M184.8828,428.61621l-2.1377.1377-0.0097-.1318c0.7675-1.043,1.3398-1.836,1.2968-2.5166a0.68594,0.68594,0,0,0-.6601-0.68851,0.673,0.673,0,0,0-.5938.55661l-0.1445.0059a1.4344,1.4344,0,0,1,1.0547-1.2393,0.97194,0.97194,0,0,1,1.0254,1.01079,1.71223,1.71223,0,0,1-.5088,1.26171l-0.7764.9355,0.7764-.0527c0.5459-.0351.5869-0.0967,0.708-0.4902l0.124-.0078Z" transform="translate(-154.76995 -376.93106)"/>
    <path class="a" d="M187.7021,426.66211l0.1192,0.627-0.3193.0586,0.1494,0.8095-0.7364.1426-0.1484-.8144-1.2588.2363-0.1201-.6348c0.3037-.8848.7939-1.96291,1.1367-2.7285l0.4004-.0752,0.458,2.4404Zm-1.3535-1.459-0.0117.00489-0.7363,1.84671,1.0605-.1934Z" transform="translate(-154.76995 -376.93106)"/>
    <path class="a" d="M189.6914,424.70211a0.80942,0.80942,0,1,1-.3994,1.00489A0.77136,0.77136,0,0,1,189.6914,424.70211Z" transform="translate(-154.76995 -376.93106)"/>
  </g>
  <path class="a" d="M193.7393,417.82321c0.3222-.2783.6357-0.5654,0.9404-0.8671a17.54659,17.54659,0,1,0-24.8174-.1114q0.50385,0.50685,1.0391.9698l1.0029-.586a17.11,17.11,0,0,1-1.2676-1.1543,16.45526,16.45526,0,1,1,23.2735.1055,16.0076,16.0076,0,0,1-1.2071,1.084Zm-4.542,1.6289a16.39909,16.39909,0,0,1-6.9424,1.4913h-0.001a16.40978,16.40978,0,0,1-6.9209-1.5469l-1.3144.56249a17.50216,17.50216,0,0,0,8.2314,2.08011h-0.001a17.478,17.478,0,0,0,8.3789-2.0772Z" transform="translate(-154.76995 -376.93106)"/>
  <line class="b" x1="37.35215" y1="23.33755" x2="17.75545" y2="23.33755"/>
  <path class="a" d="M184.7813,400.26861v14.9179s4.3798-3.72951,5.8017-5.0898a5.40993,5.40993,0,0,0,1.5977-4.2656l-0.0586-5.5625h-7.3408Z" transform="translate(-154.76995 -376.93106)"/>
  <path class="a" d="M179.9873,400.26861v14.9179s-4.3799-3.72951-5.8027-5.0898a5.40879,5.40879,0,0,1-1.5996-4.2656l0.0634-5.5625h7.3389Z" transform="translate(-154.76995 -376.93106)"/>
  <line class="c" x1="27.58355" y1="23.33755" x2="27.58355" y2="15.25355"/>
  <line class="c" x1="37.29155" y1="19.47425" x2="17.75545" y2="19.47425"/>
  <path class="a" d="M192.7324,393.35841s0.0108,0.0049-.501.0049H190.709v0.4873h-1.3584v-0.4873h-1.3418v0.4873h-1.3252v-0.4873h-1.3389v0.4873H183.999v-0.4873h-1.6015l-0.0205.9023h1.622v0.5127h1.3457v-0.5127h1.3223v0.5127h1.3418v-0.5127h1.3574v0.5127h1.3428v-0.5127h1.6006Z" transform="translate(-154.76995 -376.93106)"/>
  <polygon class="a" points="29.883 15.425 30.055 15.724 30.403 15.724 30.232 16.02 30.403 16.322 30.055 16.322 29.883 16.621 29.711 16.322 29.37 16.322 29.54 16.02 29.37 15.724 29.711 15.724 29.883 15.425"/>
  <polygon class="a" points="35.247 15.425 35.419 15.724 35.76 15.724 35.592 16.02 35.76 16.322 35.419 16.322 35.247 16.621 35.077 16.322 34.732 16.322 34.9 16.02 34.732 15.724 35.077 15.724 35.247 15.425"/>
  <polygon class="a" points="32.581 18.038 32.753 18.334 33.098 18.334 32.925 18.635 33.098 18.937 32.753 18.934 32.581 19.232 32.408 18.934 32.061 18.937 32.235 18.635 32.061 18.334 32.408 18.334 32.581 18.038"/>
  <path class="d" d="M180.0059,398.27931a2.4879,2.4879,0,0,0,1.2207-.2022,1.03179,1.03179,0,0,1,.414-0.70311,0.26872,0.26872,0,0,0-.3994.04981,0.20491,0.20491,0,0,0-.2842.0674c0.1846,0.0625.169,0.1611,0.0889,0.2256a0.309,0.309,0,0,1-.3115.0264,0.24131,0.24131,0,0,1-.208-0.2139,0.14256,0.14256,0,0,1,.2158-0.1055,0.40271,0.40271,0,0,0-.5342-0.25781,0.52741,0.52741,0,0,0-.2021-0.28419,0.5362,0.5362,0,0,0-.1993.28419,0.40474,0.40474,0,0,0-.5361.25781,0.14233,0.14233,0,0,1,.2158.1055,0.2234,0.2234,0,0,1-.1924.2139,0.3366,0.3366,0,0,1-.3261-0.0264c-0.0811-.0645-0.0967-0.1631.0879-0.2256a0.20861,0.20861,0,0,0-.2881-0.0674,0.26334,0.26334,0,0,0-.3946-0.04981,1.03746,1.03746,0,0,1,.4112.70311A2.50377,2.50377,0,0,0,180.0059,398.27931Z" transform="translate(-154.76995 -376.93106)"/>
  <path class="e" d="M178.8213,398.12011a2.06728,2.06728,0,0,1,1.1709-.2099,2.14046,2.14046,0,0,1,1.1826.208" transform="translate(-154.76995 -376.93106)"/>
  <g>
    <line class="f" x1="25.12065" y1="21.00545" x2="25.12065" y2="21.31605"/>
    <line class="f" x1="24.93025" y1="21.02594" x2="24.93025" y2="21.29845"/>
    <line class="f" x1="24.73685" y1="21.03185" x2="24.73685" y2="21.28675"/>
    <line class="f" x1="24.54745" y1="21.05435" x2="24.54745" y2="21.26915"/>
    <line class="f" x1="24.35705" y1="21.06994" x2="24.35705" y2="21.25445"/>
  </g>
  <line class="f" x1="24.16265" y1="21.11094" x2="24.16265" y2="21.23985"/>
  <g>
    <line class="f" x1="25.31205" y1="21.00545" x2="25.31205" y2="21.31605"/>
    <line class="f" x1="25.50255" y1="21.02594" x2="25.50255" y2="21.34235"/>
    <line class="f" x1="25.69485" y1="21.04645" x2="25.69485" y2="21.29255"/>
    <line class="f" x1="25.88825" y1="21.06405" x2="25.88825" y2="21.26915"/>
    <line class="f" x1="26.07865" y1="21.08455" x2="26.07865" y2="21.25445"/>
  </g>
  <line class="f" x1="26.27205" y1="21.11094" x2="26.27205" y2="21.23985"/>
  <path class="g" d="M180.7324,397.42381c-0.0791-.0342-0.289.167,0.0235,0.32519" transform="translate(-154.76995 -376.93106)"/>
  <path class="g" d="M179.2783,397.42091c0.0801-.0322.2979,0.1699-0.0137,0.32809" transform="translate(-154.76995 -376.93106)"/>
  <path class="g" d="M179.0654,397.47951s-0.1875.1152-.1074,0.2197" transform="translate(-154.76995 -376.93106)"/>
  <path class="g" d="M180.9238,397.48341s0.211,0.1113.1328,0.2158" transform="translate(-154.76995 -376.93106)"/>
  <path class="h" d="M178.8223,398.05761a2.07831,2.07831,0,0,0,1.1787.2569,2.32817,2.32817,0,0,0,1.1933-.2374" transform="translate(-154.76995 -376.93106)"/>
  <path class="d" d="M174.9639,398.27931a2.46877,2.46877,0,0,0,1.2168-.2022,1.05523,1.05523,0,0,1,.4179-0.70311,0.26856,0.26856,0,0,0-.3994.04981,0.205,0.205,0,0,0-.2851.0674c0.1826,0.0625.166,0.1611,0.0859,0.2256a0.30615,0.30615,0,0,1-.3105.0264,0.23953,0.23953,0,0,1-.2081-0.2139,0.14443,0.14443,0,0,1,.2188-0.1055,0.40668,0.40668,0,0,0-.5371-0.25781,0.528,0.528,0,0,0-.2002-0.28419,0.538,0.538,0,0,0-.2022.28419,0.40438,0.40438,0,0,0-.5351.25781,0.14271,0.14271,0,0,1,.2168.1055,0.21786,0.21786,0,0,1-.1914.2139,0.33317,0.33317,0,0,1-.3252-0.0264c-0.086-.0645-0.0977-0.1631.0879-0.2256a0.20912,0.20912,0,0,0-.2881-0.0674,0.26768,0.26768,0,0,0-.3985-0.04981,1.03161,1.03161,0,0,1,.4141.70311A2.50064,2.50064,0,0,0,174.9639,398.27931Z" transform="translate(-154.76995 -376.93106)"/>
  <path class="e" d="M173.7773,398.12011a2.06751,2.06751,0,0,1,1.1709-.2099,2.14559,2.14559,0,0,1,1.1827.208" transform="translate(-154.76995 -376.93106)"/>
  <g>
    <line class="f" x1="20.07675" y1="21.00545" x2="20.07675" y2="21.31605"/>
    <line class="f" x1="19.88725" y1="21.02594" x2="19.88725" y2="21.29845"/>
    <line class="f" x1="19.69585" y1="21.03185" x2="19.69585" y2="21.28675"/>
    <line class="f" x1="19.49955" y1="21.05435" x2="19.49955" y2="21.26915"/>
    <line class="f" x1="19.31115" y1="21.06994" x2="19.31115" y2="21.25445"/>
  </g>
  <line class="f" x1="19.11875" y1="21.11094" x2="19.11875" y2="21.23985"/>
  <g>
    <line class="f" x1="20.26715" y1="21.00545" x2="20.26715" y2="21.31605"/>
    <line class="f" x1="20.45955" y1="21.02594" x2="20.45955" y2="21.34235"/>
    <line class="f" x1="20.65485" y1="21.04645" x2="20.65485" y2="21.29255"/>
    <line class="f" x1="20.84435" y1="21.06405" x2="20.84435" y2="21.26915"/>
    <line class="f" x1="21.03375" y1="21.08455" x2="21.03375" y2="21.25445"/>
  </g>
  <line class="f" x1="21.22615" y1="21.11094" x2="21.22615" y2="21.23985"/>
  <path class="g" d="M175.6865,397.42381c-0.0752-.0342-0.2861.167,0.0264,0.32519" transform="translate(-154.76995 -376.93106)"/>
  <path class="g" d="M174.2334,397.42091c0.0791-.0322.2969,0.1699-0.0137,0.32809" transform="translate(-154.76995 -376.93106)"/>
  <path class="g" d="M174.0254,397.47951s-0.1895.1152-.1094,0.2197" transform="translate(-154.76995 -376.93106)"/>
  <path class="g" d="M175.8779,397.48341s0.211,0.1113.1328,0.2158" transform="translate(-154.76995 -376.93106)"/>
  <path class="h" d="M173.7773,398.05761a2.09682,2.09682,0,0,0,1.1788.2569,2.32245,2.32245,0,0,0,1.1933-.2374" transform="translate(-154.76995 -376.93106)"/>
  <path class="d" d="M177.4512,399.80571a2.39485,2.39485,0,0,0,1.2158-.2051,1.05271,1.05271,0,0,1,.4141-0.6973,0.264,0.264,0,0,0-.3946.0528c-0.0957-.0967-0.207-0.0088-0.2861.0585,0.1846,0.0665.1689,0.17,0.083,0.2315a0.29755,0.29755,0,0,1-.3086.0244,0.23237,0.23237,0,0,1-.208-0.2178,0.13862,0.13862,0,0,1,.2139-0.0966,0.39871,0.39871,0,0,0-.5313-0.2598,0.52993,0.52993,0,0,0-.2002-0.2852,0.52177,0.52177,0,0,0-.2031.2852,0.40119,0.40119,0,0,0-.5332.2598,0.13815,0.13815,0,0,1,.2158.0966,0.21363,0.21363,0,0,1-.1894.2178,0.33653,0.33653,0,0,1-.3282-0.0244c-0.08-.0615-0.0976-0.165.084-0.2315-0.0762-.0673-0.1875-0.1552-0.2822-0.0585a0.2693,0.2693,0,0,0-.3994-0.0528,1.026,1.026,0,0,1,.416.6973A2.40911,2.40911,0,0,0,177.4512,399.80571Z" transform="translate(-154.76995 -376.93106)"/>
  <path class="e" d="M176.2646,399.64361a3.49459,3.49459,0,0,1,2.3536,0" transform="translate(-154.76995 -376.93106)"/>
  <g>
    <line class="f" x1="22.56505" y1="22.53765" x2="22.56505" y2="22.84235"/>
    <line class="f" x1="22.37065" y1="22.55525" x2="22.37065" y2="22.83065"/>
    <line class="f" x1="22.18025" y1="22.55825" x2="22.18025" y2="22.81305"/>
    <line class="f" x1="21.98785" y1="22.57875" x2="21.98785" y2="22.79845"/>
    <line class="f" x1="21.79935" y1="22.60215" x2="21.79935" y2="22.77794"/>
  </g>
  <line class="f" x1="21.60605" y1="22.63435" x2="21.60605" y2="22.76525"/>
  <g>
    <line class="f" x1="22.75645" y1="22.53765" x2="22.75645" y2="22.84235"/>
    <line class="f" x1="22.94785" y1="22.55525" x2="22.94785" y2="22.87165"/>
    <line class="f" x1="23.13535" y1="22.57185" x2="23.13535" y2="22.82185"/>
    <line class="f" x1="23.33065" y1="22.59335" x2="23.33065" y2="22.79845"/>
    <line class="f" x1="23.52205" y1="22.61385" x2="23.52205" y2="22.77794"/>
  </g>
  <line class="f" x1="23.71145" y1="22.63435" x2="23.71145" y2="22.76525"/>
  <path class="g" d="M178.1729,398.95611c-0.0772-.04111-0.2872.1611,0.0214,0.3193" transform="translate(-154.76995 -376.93106)"/>
  <path class="g" d="M176.7188,398.95021c0.0791-.0381.2988,0.167-0.0127,0.3252" transform="translate(-154.76995 -376.93106)"/>
  <path class="g" d="M176.5107,399.00881s-0.1875.11419-.1093,0.2226" transform="translate(-154.76995 -376.93106)"/>
  <path class="g" d="M178.3652,399.01171s0.21,0.11129.1319,0.2197" transform="translate(-154.76995 -376.93106)"/>
  <g>
    <path class="a" d="M179.9971,397.69921c0.0019,0.0117.0136,0.0147,0.0146-.0029,0.0108-.1094.0283-0.416,0.0352-0.4717a0.0444,0.0444,0,1,0-.085-0.0029C179.9658,397.27641,179.9824,397.58691,179.9971,397.69921Z" transform="translate(-154.76995 -376.93106)"/>
    <path class="a" d="M180.3857,397.33011a0.21884,0.21884,0,0,0-.166.3076c0.0069,0.0146.0303,0.0117,0.0274-.0059a0.28581,0.28581,0,0,1,.1504-0.2617C180.415,397.36821,180.4131,397.33011,180.3857,397.33011Z" transform="translate(-154.76995 -376.93106)"/>
    <path class="a" d="M179.6162,397.33011c0.0889,0,.209.0908,0.166,0.3076a0.01465,0.01465,0,0,1-.0283-0.0059,0.27541,0.27541,0,0,0-.1514-0.2617C179.5869,397.36821,179.5889,397.33011,179.6162,397.33011Z" transform="translate(-154.76995 -376.93106)"/>
    <path class="a" d="M178.8457,397.51271a0.17408,0.17408,0,0,0-.0039.207c0.0078,0.0381-.0107.0557-0.0342,0.0147a0.21847,0.21847,0,0,1-.0156-0.2373C178.8408,397.43261,178.8574,397.48831,178.8457,397.51271Z" transform="translate(-154.76995 -376.93106)"/>
    <path class="a" d="M178.7275,397.54691a0.14547,0.14547,0,0,0-.0986-0.1172c-0.0312-.0108-0.041.0117-0.0146,0.0185a0.15678,0.15678,0,0,1,.0878.0811C178.7314,397.582,178.7334,397.56351,178.7275,397.54691Z" transform="translate(-154.76995 -376.93106)"/>
    <path class="a" d="M181.1592,397.51271a0.18513,0.18513,0,0,1,.0029.207c-0.0088.0381,0.0088,0.0557,0.0352,0.0147a0.23023,0.23023,0,0,0,.0127-0.2373C181.1631,397.43261,181.1484,397.48831,181.1592,397.51271Z" transform="translate(-154.76995 -376.93106)"/>
    <path class="a" d="M181.2734,397.54691a0.14574,0.14574,0,0,1,.1026-0.1172c0.0342-.0108.041,0.0117,0.0127,0.0185a0.16517,0.16517,0,0,0-.0869.0811C181.2705,397.582,181.2686,397.56351,181.2734,397.54691Z" transform="translate(-154.76995 -376.93106)"/>
    <path class="a" d="M174.9521,397.69921c0.002,0.0117.0137,0.0147,0.0167-.0029,0.0097-.1094.0292-0.416,0.0351-0.4717a0.0455,0.0455,0,1,0-.0879-0.0029C174.9238,397.27641,174.9365,397.58691,174.9521,397.69921Z" transform="translate(-154.76995 -376.93106)"/>
    <path class="a" d="M175.3389,397.33011a0.21821,0.21821,0,0,0-.1621.3076,0.0141,0.0141,0,0,0,.0273-0.0059,0.27888,0.27888,0,0,1,.1484-0.2617C175.3721,397.36821,175.3701,397.33011,175.3389,397.33011Z" transform="translate(-154.76995 -376.93106)"/>
    <path class="a" d="M174.5732,397.33011c0.0899,0,.209.0908,0.167,0.3076a0.01406,0.01406,0,0,1-.0273-0.0059,0.27619,0.27619,0,0,0-.1543-0.2617C174.543,397.36821,174.5439,397.33011,174.5732,397.33011Z" transform="translate(-154.76995 -376.93106)"/>
    <path class="a" d="M173.8027,397.51271a0.17243,0.17243,0,0,0-.0039.207c0.0078,0.0381-.0127.0557-0.0361,0.0147a0.21811,0.21811,0,0,1-.0137-0.2373C173.7979,397.43261,173.8154,397.48831,173.8027,397.51271Z" transform="translate(-154.76995 -376.93106)"/>
    <path class="a" d="M173.6855,397.54691a0.15936,0.15936,0,0,0-.0996-0.1172c-0.0341-.0108-0.0429.0117-0.0166,0.0185a0.13745,0.13745,0,0,1,.084.0811C173.6885,397.582,173.6895,397.56351,173.6855,397.54691Z" transform="translate(-154.76995 -376.93106)"/>
    <path class="a" d="M176.1123,397.51271a0.18182,0.18182,0,0,1,.0078.207c-0.0107.0381,0.0078,0.0557,0.0332,0.0147a0.23,0.23,0,0,0,.0127-0.2373C176.1201,397.43261,176.1006,397.48831,176.1123,397.51271Z" transform="translate(-154.76995 -376.93106)"/>
    <path class="a" d="M176.2305,397.54691a0.14707,0.14707,0,0,1,.1025-0.1172c0.0303-.0108.0381,0.0117,0.0127,0.0185a0.16517,0.16517,0,0,0-.0869.0811C176.2285,397.582,176.2256,397.56351,176.2305,397.54691Z" transform="translate(-154.76995 -376.93106)"/>
    <path class="a" d="M177.4385,399.22751c0.0029,0.0127.0156,0.0157,0.0166,0,0.0107-.1191.0283-0.415,0.0361-0.47651,0.0059-.08009-0.0957-0.07809-0.0889-0.002C177.4111,398.80661,177.4258,399.11041,177.4385,399.22751Z" transform="translate(-154.76995 -376.93106)"/>
    <path class="a" d="M177.8271,398.85941a0.22059,0.22059,0,0,0-.166.30759,0.015,0.015,0,0,0,.0293-0.00589,0.29446,0.29446,0,0,1,.1504-0.2666C177.8584,398.89161,177.8564,398.85941,177.8271,398.85941Z" transform="translate(-154.76995 -376.93106)"/>
    <path class="a" d="M177.0576,398.85941a0.2211,0.2211,0,0,1,.1699.30759,0.014,0.014,0,1,1-.0273-0.00589,0.28644,0.28644,0,0,0-.1533-0.2666C177.0303,398.89161,177.0313,398.85941,177.0576,398.85941Z" transform="translate(-154.76995 -376.93106)"/>
    <g>
      <circle class="a" cx="24.99838" cy="20.80257" r="0.02295"/>
      <circle class="a" cx="24.88212" cy="20.89197" r="0.01707"/>
      <circle class="a" cx="24.71785" cy="20.90927" r="0.02056"/>
      <circle class="a" cx="24.52353" cy="20.9342" r="0.02347"/>
      <circle class="a" cx="24.33597" cy="20.9608" r="0.02563"/>
      <circle class="a" cx="24.14142" cy="20.9974" r="0.02733"/>
      <circle class="a" cx="25.58013" cy="20.89197" r="0.01933"/>
      <circle class="a" cx="25.7479" cy="20.90927" r="0.02078"/>
      <circle class="a" cx="25.93997" cy="20.9342" r="0.02347"/>
      <circle class="a" cx="26.12677" cy="20.9608" r="0.02539"/>
      <circle class="a" cx="26.32427" cy="20.9974" r="0.02758"/>
      <circle class="a" cx="25.46542" cy="20.80257" r="0.0222"/>
      <circle class="a" cx="19.95415" cy="20.80257" r="0.02273"/>
      <circle class="a" cx="19.83798" cy="20.89197" r="0.01881"/>
      <circle class="a" cx="19.67317" cy="20.90927" r="0.02076"/>
      <circle class="a" cx="19.47833" cy="20.9342" r="0.02124"/>
      <circle class="a" cx="19.2913" cy="20.9608" r="0.0249"/>
      <circle class="a" cx="19.09627" cy="20.9974" r="0.02758"/>
      <circle class="a" cx="20.53817" cy="20.89197" r="0.01934"/>
      <circle class="a" cx="20.70172" cy="20.90927" r="0.02056"/>
      <circle class="a" cx="20.89387" cy="20.9342" r="0.02297"/>
      <circle class="a" cx="21.0843" cy="20.9608" r="0.0244"/>
      <circle class="a" cx="21.27937" cy="20.9974" r="0.02708"/>
      <circle class="a" cx="20.42192" cy="20.80257" r="0.0232"/>
      <circle class="a" cx="22.44172" cy="22.32965" r="0.02123"/>
      <ellipse class="a" cx="22.3243" cy="22.41757" rx="0.0215" ry="0.01756"/>
      <circle class="a" cx="22.15947" cy="22.43612" r="0.01907"/>
      <circle class="a" cx="21.96492" cy="22.46275" r="0.02245"/>
      <circle class="a" cx="21.77645" cy="22.4896" r="0.02515"/>
      <circle class="a" cx="21.58257" cy="22.52892" r="0.02685"/>
      <circle class="a" cx="23.0257" cy="22.41757" r="0.01783"/>
      <circle class="a" cx="23.1888" cy="22.43612" r="0.02074"/>
      <circle class="a" cx="23.38117" cy="22.46275" r="0.02195"/>
      <circle class="a" cx="23.57232" cy="22.4896" r="0.0247"/>
      <circle class="a" cx="23.76472" cy="22.52892" r="0.02685"/>
      <ellipse class="a" cx="22.9075" cy="22.32965" rx="0.0249" ry="0.0205"/>
    </g>
    <path class="a" d="M176.292,399.04a0.17382,0.17382,0,0,0-.0078.209c0.0097,0.03521-.0088.05471-0.0371,0.01371a0.23555,0.23555,0,0,1-.0137-0.2402C176.2832,398.96481,176.2998,399.01461,176.292,399.04Z" transform="translate(-154.76995 -376.93106)"/>
    <path class="a" d="M176.1709,399.06931a0.14257,0.14257,0,0,0-.0996-0.11031c-0.0332-.01079-0.04.01171-0.0156,0.01761a0.19756,0.19756,0,0,1,.0879.0761C176.1729,399.10551,176.1768,399.08891,176.1709,399.06931Z" transform="translate(-154.76995 -376.93106)"/>
    <path class="a" d="M178.6006,399.04a0.18144,0.18144,0,0,1,.0068.209c-0.0097.03521,0.0069,0.05471,0.0313,0.01371a0.229,0.229,0,0,0,.0127-0.2402C178.6074,398.96481,178.5879,399.01461,178.6006,399.04Z" transform="translate(-154.76995 -376.93106)"/>
    <path class="a" d="M178.7178,399.06931a0.13447,0.13447,0,0,1,.1015-0.11031c0.0303-.01079.0381,0.01171,0.0147,0.01761a0.1778,0.1778,0,0,0-.0899.0761C178.7139,399.10551,178.7119,399.08891,178.7178,399.06931Z" transform="translate(-154.76995 -376.93106)"/>
  </g>
  <path class="h" d="M176.2666,399.58591a2.07876,2.07876,0,0,0,1.1758.2608,2.28581,2.28581,0,0,0,1.1953-.2461" transform="translate(-154.76995 -376.93106)"/>
  <polygon class="a" points="37.246 21.565 32.405 20.097 27.563 21.565 27.563 21.171 32.405 19.697 37.246 21.171 37.246 21.565"/>
  <polygon class="a" points="37.246 22.336 32.405 20.865 27.563 22.336 27.563 21.937 32.405 20.463 37.246 21.937 37.246 22.336"/>
  <polygon class="a" points="37.246 23.1 32.405 21.629 27.563 23.1 27.563 22.705 32.405 21.236 37.246 22.705 37.246 23.1"/>
  <polygon points="39.737 46.588 38.713 46.963 38.578 46.652 39.55 45.741 40.333 46.306 40.366 46.679 39.737 46.588"/>
  <polygon points="16.396 46.963 16.548 46.652 15.169 45.867 14.715 46.456 16.396 46.963"/>
  <path class="i" d="M178.875,415.61721a0.63645,0.63645,0,0,0-.2393-0.1943c-0.4589.039-.414,0.039-0.414,0.039-5.002.7402-8.9922,2.7442-10.6279,5.3233l0.0195,0.0732c0.4433,1.1152,1.3379,1.6318,1.8721,2.4043l0.0498,0.0684,0.1533-.168c1.7539-2.3369,5.1426-3.99511,9.2666-4.6807l0.0088,0.0303S179.2891,416.02731,178.875,415.61721Z" transform="translate(-154.76995 -376.93106)"/>
  <path class="j" d="M166.0215,421.83691l1.3213,1.2803-0.5362,1.3945c2.5254-.0879,4.3594-0.331,4.3594-0.6181,0-.17-0.6181-0.3223-1.6308-0.43661l-1.5079-1.77539C167.3916,421.751,166.7197,421.80181,166.0215,421.83691Z" transform="translate(-154.76995 -376.93106)"/>
  <path class="k" d="M180.0322,418.30961" transform="translate(-154.76995 -376.93106)"/>
  <path class="k" d="M178.999,418.50491" transform="translate(-154.76995 -376.93106)"/>
  <path class="i" d="M180.0811,418.30661c-0.0166,0-.0323.003-0.0489,0.003-0.1806-1.3213-.1806-1.3301-0.1806-1.3301l-0.6924.1269-0.1602,1.3985-0.0351.0078a1.06471,1.06471,0,0,0-.8985.8135c0.0508,0.42179.8965,0.6621,1.8858,0.542,0.9863-.125,1.7431-0.5684,1.6914-0.99321-0.0469-.37789-0.7188-0.60639-1.5615-0.56839" transform="translate(-154.76995 -376.93106)"/>
  <path class="k" d="M179.751,415.70611v-0.0489c-0.003-.03421-0.0059-0.0664-0.0078-0.1015Z" transform="translate(-154.76995 -376.93106)"/>
  <path class="k" d="M179.751,415.65721a0.44743,0.44743,0,0,0,.0019.0489" transform="translate(-154.76995 -376.93106)"/>
  <path class="l" d="M179.751,415.65721" transform="translate(-154.76995 -376.93106)"/>
  <path class="m" d="M179.1143,417.10641c0.0918-.0068.5507-0.0771,0.6738-0.10741l-0.6738.10741" transform="translate(-154.76995 -376.93106)"/>
  <path class="i" d="M197.0342,420.85551l0.0244-.0703c-1.6367-2.5831-5.626-4.585-10.6299-5.32621,0,0,.043,0-0.4131-0.03809a0.64616,0.64616,0,0,0-.2412.1934,2.4533,2.4533,0,0,0-.1719,1.8535l0.086,1.0439,0.0058-.0293c4.127,0.68459,7.4522,2.3438,9.2051,4.6807l0.1533,0.166,0.0518-.0684C195.6396,422.48731,196.5947,421.97171,197.0342,420.85551Z" transform="translate(-154.76995 -376.93106)"/>
  <path class="j" d="M198.6289,421.83691c-0.6963-.0351-1.3711-0.08791-2.00389-0.1582l-1.5098,1.77829c-1.0127.11141-1.6318,0.26371-1.6318,0.43661,0,0.2871,1.8369.5302,4.3623,0.6152l-0.5361-1.3945Z" transform="translate(-154.76995 -376.93106)"/>
  <path class="k" d="M185.1592,418.41211" transform="translate(-154.76995 -376.93106)"/>
  <path class="k" d="M184.6182,418.30661a0.44456,0.44456,0,0,0-.0625-0.0029" transform="translate(-154.76995 -376.93106)"/>
  <path class="l" d="M184.5557,418.30371h-0.0371" transform="translate(-154.76995 -376.93106)"/>
  <path class="i" d="M184.5186,418.30371c-0.8184-.0264-1.4629.1992-1.5059,0.5684-0.0566.4248,0.7012,0.8701,1.6894,0.9931,0.9893,0.1202,1.8321-.1181,1.8848-0.5459a1.00465,1.00465,0,0,0-.8262-0.77931" transform="translate(-154.76995 -376.93106)"/>
  <path class="i" d="M185.7607,418.54a0.36184,0.36184,0,0,0-.0722-0.02829l-0.0274-.0068-0.1211-1.3994h0l-0.7109-.1172-0.1728,1.3252" transform="translate(-154.76995 -376.93106)"/>
  <path class="k" d="M185.1592,418.41211" transform="translate(-154.76995 -376.93106)"/>
  <path class="l" d="M184.9072,415.55371c-0.0029.0371-.0058,0.0664-0.0078,0.1016v0.0508Z" transform="translate(-154.76995 -376.93106)"/>
  <g>
    <path class="i" d="M182.3252,415.08691a14.29212,14.29212,0,0,0-2.584.2197v0.3077l0.0117,0.0918c0.0547,0.9628.3164,2.5683,0.3164,2.5683a16.42412,16.42412,0,0,1,2.2559-.14841" transform="translate(-154.76995 -376.93106)"/>
    <path class="i" d="M182.3262,415.084a14.14588,14.14588,0,0,1,2.5869.22171l-0.0059.248-0.0078.1016c-0.0469.959-.1279,1.8554-0.2431,2.6582,0,0-1.5293-.18851-2.3301-0.18851" transform="translate(-154.76995 -376.93106)"/>
  </g>
  <path class="m" d="M185.2539,417.07031a2.38976,2.38976,0,0,0,.2861.0352l-0.6777-.1084A3.64048,3.64048,0,0,0,185.2539,417.07031Z" transform="translate(-154.76995 -376.93106)"/>
  <circle class="n" cx="27.55572" cy="27.55892" r="27.00975"/>
  <g>
    <path class="o" d="M165.1377,417.72661l0.8564-.6739a1.46394,1.46394,0,0,0,.292-0.2685,0.25151,0.25151,0,0,0,.0362-0.1651,0.60713,0.60713,0,0,0-.1416-0.2578l0.0781-.0615,0.9785,1.2441-0.0781.0606a0.58635,0.58635,0,0,0-.2197-0.1973,0.25158,0.25158,0,0,0-.167-0.0029,1.42085,1.42085,0,0,0-.3291.21969l-1.9854,1.56151a1.46548,1.46548,0,0,0-.292.2686,0.25027,0.25027,0,0,0-.0351.165,0.612,0.612,0,0,0,.1406.25789l-0.0781.06151-0.8838-1.125a2.50553,2.50553,0,0,1-.4317-0.7051,0.83778,0.83778,0,0,1,.0215-0.5527,1.13223,1.13223,0,0,1,.3809-0.5078,1.039,1.039,0,0,1,.709-0.2461,0.96541,0.96541,0,0,1,.4785.1796l0.5752-1.3886a1.79987,1.79987,0,0,0,.1181-0.3614,0.345,0.345,0,0,0-.0566-0.22941l0.082-.06549,0.6016,0.7637-0.7735,1.8691Zm-1.4873,1.1709,1.3252-1.043-0.0781-.1016a1.15281,1.15281,0,0,0-.3487-0.3252,0.49762,0.49762,0,0,0-.3564-0.0302,1.14391,1.14391,0,0,0-.4414.2353,1.051,1.051,0,0,0-.4102.5303,0.62125,0.62125,0,0,0,.1602.543Z" transform="translate(-154.76995 -376.93106)"/>
    <path class="o" d="M161.4248,415.63481l1.3809-.76081-0.0293-.05269a0.45545,0.45545,0,0,0-.4092-0.2617,1.6642,1.6642,0,0,0-.6797.1816l-0.04-.0723,1.7754-.9794,0.04,0.0712a1.77333,1.77333,0,0,0-.418.36229,0.5963,0.5963,0,0,0-.1494.31651,0.63855,0.63855,0,0,0,.0996.3291l0.9522-.5254a1.93911,1.93911,0,0,0,.331-0.2071,0.22394,0.22394,0,0,0,.0645-0.125,0.31088,0.31088,0,0,0-.0528-0.1894l-0.0888-.1612a0.9515,0.9515,0,0,0-.5518-0.4834,1.44578,1.44578,0,0,0-.8476.043l-0.0411-.0752,1.1436-.4717,1.2822,2.3243-0.0869.0488-0.0498-.0908a0.3584,0.3584,0,0,0-.1572-0.1592,0.2566,0.2566,0,0,0-.1641-0.0108,1.4264,1.4264,0,0,0-.3301.1524l-2.2314,1.2314a2.30635,2.30635,0,0,0-.2803.168,0.28647,0.28647,0,0,0-.0967.1475,0.33429,0.33429,0,0,0,.043.2461l0.0498,0.0888-0.0869.0489-1.2422-2.252,1-.5518,0.0401,0.0713a1.64941,1.64941,0,0,0-.4366.4551,0.6782,0.6782,0,0,0-.0703.42379,1.424,1.424,0,0,0,.1856.44341Z" transform="translate(-154.76995 -376.93106)"/>
    <path class="o" d="M159.7314,412.585l1.7374-2.23539-1.5547.5566a0.98761,0.98761,0,0,0-.4219.2354,0.39528,0.39528,0,0,0-.0293.40039l-0.0938.03221-0.3427-.9599,0.0937-.0332a0.63223,0.63223,0,0,0,.166.2207,0.322,0.322,0,0,0,.1895.041,1.35893,1.35893,0,0,0,.3818-0.0957l3.0332-1.0879,0.0264,0.0742-2.3418,3.0527,2.3271-.834a0.63709,0.63709,0,0,0,.3887-0.2695,0.39487,0.39487,0,0,0,.0156-0.30661l-0.0253-.07029,0.0937-.0332,0.3701,1.0312-0.0937.0332a0.42858,0.42858,0,0,0-.2442-0.2871,0.76086,0.76086,0,0,0-.4492.0566l-2.5674.92-0.0771.10059a0.71535,0.71535,0,0,0-.1387.23431,0.417,0.417,0,0,0,.0195.2198l-0.0937.0332Z" transform="translate(-154.76995 -376.93106)"/>
    <path class="o" d="M158.3779,407.91891l1.2598-.2734,0.0176,0.0918a1.46088,1.46088,0,0,0-.6992.47069,0.73661,0.73661,0,0,0-.1807.60161,0.46121,0.46121,0,0,0,.2236.332,0.53133,0.53133,0,0,0,.377.0605,0.50811,0.50811,0,0,0,.2148-0.0888,0.88771,0.88771,0,0,0,.2197-0.2578,4.67564,4.67564,0,0,0,.2305-0.5508,2.28579,2.28579,0,0,1,.4756-0.8408,1.32173,1.32173,0,0,1,1.5059-.1817,0.96386,0.96386,0,0,1,.4912.6797,0.99812,0.99812,0,0,1,.0166.2774,1.78339,1.78339,0,0,1-.0742.3466,0.4065,0.4065,0,0,0-.0215.1846,0.19475,0.19475,0,0,0,.081.1113,0.408,0.408,0,0,0,.1944.0733l0.0156,0.0791-1.4307.2842-0.0166-.0811a1.827,1.827,0,0,0,.8447-0.5576,0.82073,0.82073,0,0,0,.1983-0.6651,0.5106,0.5106,0,0,0-.249-0.3632,0.60323,0.60323,0,0,0-.4268-0.06841,0.64348,0.64348,0,0,0-.249.10741,0.83426,0.83426,0,0,0-.2051.2217,2.74938,2.74938,0,0,0-.2139.4697,3.52871,3.52871,0,0,1-.3164.6778,1.33911,1.33911,0,0,1-.3457.3535,1.24135,1.24135,0,0,1-.4687.1924,1.19238,1.19238,0,0,1-.8252-0.1114,0.85023,0.85023,0,0,1-.4522-0.6045,0.96893,0.96893,0,0,1-.0117-0.2949,1.209,1.209,0,0,1,.0733-0.2793,0.55021,0.55021,0,0,0,.0488-0.23041,0.10746,0.10746,0,0,0-.0625-0.08009,0.63675,0.63675,0,0,0-.2276-0.0225Z" transform="translate(-154.76995 -376.93106)"/>
    <path class="o" d="M158.1006,404.97661a0.61492,0.61492,0,0,1,.2226.0498,0.11355,0.11355,0,0,1,.0518.0898,0.53623,0.53623,0,0,1-.0781.2207,1.25472,1.25472,0,0,0-.1084.2676,0.95084,0.95084,0,0,0-.0264.293,0.84911,0.84911,0,0,0,.3701.6582,1.18929,1.18929,0,0,0,.8047.2168,1.21882,1.21882,0,0,0,.4883-0.1309,1.30973,1.30973,0,0,0,.3896-0.3057,3.48593,3.48593,0,0,0,.4014-0.6318,2.52033,2.52033,0,0,1,.2725-0.4355,0.75468,0.75468,0,0,1,.2314-0.1934,0.60959,0.60959,0,0,1,.2608-0.07621,0.59287,0.59287,0,0,1,.413.12311,0.50684,0.50684,0,0,1,.2012.3906,0.82115,0.82115,0,0,1-.2812.6357,1.855,1.855,0,0,1-.9102.4453l0.0059,0.0811,1.456-.0977-0.0049-.082a0.4056,0.4056,0,0,1-.1845-0.0947,0.1979,0.1979,0,0,1-.0655-0.1221,0.40646,0.40646,0,0,1,.045-0.1797,1.73193,1.73193,0,0,0,.1181-0.3359,0.99094,0.99094,0,0,0,.0186-0.2764,0.96126,0.96126,0,0,0-.3985-0.73731,1.23961,1.23961,0,0,0-.8515-0.24409,1.25553,1.25553,0,0,0-.666.2314,2.32951,2.32951,0,0,0-.5801.7725,4.74,4.74,0,0,1-.2988.5156,0.96032,0.96032,0,0,1-.251.2285,0.52713,0.52713,0,0,1-.2246.0596,0.51581,0.51581,0,0,1-.3662-0.1104,0.45847,0.45847,0,0,1-.1797-0.3554,0.73611,0.73611,0,0,1,.2578-0.5742,1.4678,1.4678,0,0,1,.7539-0.377l-0.0059-.0937-1.2851.1103Z" transform="translate(-154.76995 -376.93106)"/>
    <path class="o" d="M158.4619,402.71391l1.5713,0.12109,0.0049-.06059a0.45151,0.45151,0,0,0-.1973-0.44141,1.68338,1.68338,0,0,0-.6679-0.22169l0.0058-.082,2.0215,0.1553-0.0059.082a1.76947,1.76947,0,0,0-.5488.0732,0.59445,0.59445,0,0,0-.2978.1817,0.64155,0.64155,0,0,0-.0977.331l1.085,0.084a1.97663,1.97663,0,0,0,.3896.0078,0.21256,0.21256,0,0,0,.1221-0.07031,0.30218,0.30218,0,0,0,.0605-0.18549l0.0147-.1846a0.95692,0.95692,0,0,0-.1953-0.708,1.47205,1.47205,0,0,0-.7325-0.4287l0.0069-.085,1.2148,0.2324-0.2051,2.6485-0.0996-.0069,0.0088-.1025a0.357,0.357,0,0,0-.0439-0.22071,0.25574,0.25574,0,0,0-.1309-0.09959,1.36479,1.36479,0,0,0-.3613-0.0527l-2.541-.1973a2.59229,2.59229,0,0,0-.3252-0.0127,0.30249,0.30249,0,0,0-.1621.07029,0.328,0.328,0,0,0-.0987.22951l-0.0078.10349-0.0996-.00969,0.1983-2.5625,1.1386,0.0878-0.0058.0801a1.6874,1.6874,0,0,0-.6133.1407,0.6892,0.6892,0,0,0-.293.3164,1.502,1.502,0,0,0-.0879.4716Z" transform="translate(-154.76995 -376.93106)"/>
    <path class="o" d="M161.5928,398.06351a3.18926,3.18926,0,0,1,.6191.3808,0.88706,0.88706,0,0,1,.2666.3555,0.70808,0.70808,0,0,1,.0098.418l-0.0606.25a0.87543,0.87543,0,0,1-.0898.2617,0.2,0.2,0,0,1-.1426.0742,1.53626,1.53626,0,0,1-.374-0.0625l-2.3994-.582a1.42143,1.42143,0,0,1-.3467-0.1113,0.265,0.265,0,0,1-.1133-0.1241,0.34584,0.34584,0,0,1-.0078-0.2226l0.0313-.1299-0.0967-.0234-0.3867,1.5947,0.0966,0.02339,0.0244-.10059a0.34306,0.34306,0,0,1,.1036-0.1855,0.27218,0.27218,0,0,1,.1504-0.0664,1.56918,1.56918,0,0,1,.371.06249l2.4766,0.60061a1.43275,1.43275,0,0,1,.3477.1113,0.24744,0.24744,0,0,1,.1132.12209,0.341,0.341,0,0,1,.0079.22071l-0.0245.1015,0.0977,0.0235,0.6436-2.6543-1.294-.4336Z" transform="translate(-154.76995 -376.93106)"/>
    <path class="o" d="M163.2393,395.915c0.1328,0.01181.208,0.01961,0.2255,0.02151a0.4614,0.4614,0,0,1,.1036.0293,0.16782,0.16782,0,0,1,.1015.0996,0.37582,0.37582,0,0,1-.041.2559l-0.0244.0586,0.0918,0.039,0.5898-1.371-0.0918-.0391a0.32176,0.32176,0,0,1-.1816.1601,1.9787,1.9787,0,0,1-.6299.0118l-3.3535-.2325-0.0166.0391,2.4004,2.2314a2.54053,2.54053,0,0,1,.4365.4747,0.437,0.437,0,0,1,.0518.3193l0.0918,0.0391,0.4043-.9395-0.0918-.04a0.73185,0.73185,0,0,1-.1817.2509,0.285,0.285,0,0,1-.2636-0.0019,1.04034,1.04034,0,0,1-.2637-0.1817l-0.293-.2724,0.4258-.99021Zm-1.0997.79981-1.0263-.9541,1.3935,0.0997Z" transform="translate(-154.76995 -376.93106)"/>
    <path class="o" d="M161.9189,391.98441l1.3262,0.85059,0.0332-.05079a0.454,0.454,0,0,0,.0352-0.4854,1.70363,1.70363,0,0,0-.4834-0.5107l0.0449-.0684,1.7061,1.0938-0.044.0693a1.7629,1.7629,0,0,0-.5166-0.1953,0.59426,0.59426,0,0,0-.3496.01949,0.64279,0.64279,0,0,0-.2422.24511l0.9151,0.587a2.01407,2.01407,0,0,0,.3408.1923,0.23376,0.23376,0,0,0,.1416-0.0048,0.32044,0.32044,0,0,0,.1406-0.1348l0.0996-.1553a0.96135,0.96135,0,0,0,.1621-0.7168,1.46541,1.46541,0,0,0-.4424-0.7236l0.0469-.0723,0.96,0.7813-1.4336,2.2353-0.083-.0537,0.0547-.0869a0.36691,0.36691,0,0,0,.0664-0.21481,0.26265,0.26265,0,0,0-.0684-0.14949,1.49406,1.49406,0,0,0-.293-0.2177l-2.1455-1.375a2.53878,2.53878,0,0,0-.2802-0.166,0.29591,0.29591,0,0,0-.1758-0.0157,0.33569,0.33569,0,0,0-.1963.1563l-0.0557.0869-0.084-.0537,1.3877-2.166,0.9629,0.6172-0.0449.0683a1.66061,1.66061,0,0,0-.6064-0.167,0.6894,0.6894,0,0,0-.4083.1406,1.44656,1.44656,0,0,0-.2998.3741Z" transform="translate(-154.76995 -376.93106)"/>
    <path class="o" d="M164.1699,388.94141a0.62592,0.62592,0,0,1,.5069-0.2529,1.062,1.062,0,0,1,.5947.30949,1.16793,1.16793,0,0,1,.3096.39361,0.51253,0.51253,0,0,1,.0332.35639,1.16,1.16,0,0,1-.2598.40041l-0.085.0957-1.2607-1.122Zm1.3858,1.29,1.9756,0.4327,0.6474-.7276-0.0801-.0693a0.3324,0.3324,0,0,1-.2158.0967,1.84444,1.84444,0,0,1-.375-0.0528l-1.4687-.3213a0.95974,0.95974,0,0,0,.0908-0.5029,1.03628,1.03628,0,0,0-.3662-0.6543,1.136,1.136,0,0,0-.5664-0.2861,0.84607,0.84607,0,0,0-.5489.0771,2.52026,2.52026,0,0,0-.6171.5479l-0.9512,1.0693,0.0742,0.0664a0.58362,0.58362,0,0,1,.2285-0.1845,0.25629,0.25629,0,0,1,.169.0058,1.48213,1.48213,0,0,1,.3164.2412l1.8867,1.6778a1.47982,1.47982,0,0,1,.2734.2851,0.25712,0.25712,0,0,1,.0274.1651,0.59274,0.59274,0,0,1-.1563.2509l0.0742,0.06639,1.0518-1.18159-0.0752-.06641a0.59363,0.59363,0,0,1-.2285.18461,0.26309,0.26309,0,0,1-.169-0.0059,1.5727,1.5727,0,0,1-.3154-0.2412l-0.8144-.7246Z" transform="translate(-154.76995 -376.93106)"/>
    <path class="o" d="M168.083,385.376a0.532,0.532,0,0,1,.4844-0.10349,1.04779,1.04779,0,0,1,.4922.4238,1.09464,1.09464,0,0,1,.2549.6084,0.50058,0.50058,0,0,1-.2276.4199c-0.0215.0166-.0537,0.0361-0.0967,0.0635l-0.9814-1.3584Zm1.6016,1.09961a0.9207,0.9207,0,0,0,.2031-0.5977,1.09907,1.09907,0,0,0-.2275-0.6328,1.02431,1.02431,0,0,0-.67-0.4326,1.28423,1.28423,0,0,0-.9482.3184l-1.0899.78709,0.0586,0.081a0.57515,0.57515,0,0,1,.2657-0.13079,0.26617,0.26617,0,0,1,.166.042,1.48106,1.48106,0,0,1,.2588.3046l1.4736,2.0381a1.48248,1.48248,0,0,1,.207.3408,0.27517,0.27517,0,0,1-.0117.17,0.57557,0.57557,0,0,1-.207.2129l0.0576,0.081,1.2725-.9199-0.0586-.0811a0.57912,0.57912,0,0,1-.2617.1289,0.25039,0.25039,0,0,1-.1661-0.0419,1.52927,1.52927,0,0,1-.2578-0.3067l-0.6279-.8691A2.78093,2.78093,0,0,0,169.6846,386.47561Z" transform="translate(-154.76995 -376.93106)"/>
    <path class="o" d="M171.6934,383.28031a1.14194,1.14194,0,0,1,.5029.34669,4.31156,4.31156,0,0,1,.6211.96971,3.93657,3.93657,0,0,1,.374.9814,1.2116,1.2116,0,0,1-.0127.6612,0.56927,0.56927,0,0,1-.2851.3046,0.59832,0.59832,0,0,1-.6319-0.0488,2.9717,2.9717,0,0,1-.9111-1.1758,3.50051,3.50051,0,0,1-.418-1.2187,0.7109,0.7109,0,0,1,.3281-0.7754A0.59586,0.59586,0,0,1,171.6934,383.28031Zm-1.3204.8994a2.202,2.202,0,0,0,.2364,1.4912,2.38937,2.38937,0,0,0,.9219,1.0176,1.44715,1.44715,0,0,0,1.4687.0449,1.42931,1.42931,0,0,0,.8057-1.2432,2.41737,2.41737,0,0,0-.2803-1.3095,2.20868,2.20868,0,0,0-1.0615-1.0674,1.37189,1.37189,0,0,0-1.3125.0635A1.33441,1.33441,0,0,0,170.373,384.17971Z" transform="translate(-154.76995 -376.93106)"/>
    <path class="o" d="M176.8457,383.708l0.3037,1.33011-2.5996.83589-0.0293-.09369,0.0977-.03231a0.33622,0.33622,0,0,0,.1845-0.123,0.24881,0.24881,0,0,0,.045-0.15919,1.49966,1.49966,0,0,0-.087-0.3535l-0.7802-2.4268a1.5089,1.5089,0,0,0-.1397-0.3496,0.26794,0.26794,0,0,0-.1357-0.0937,0.33281,0.33281,0,0,0-.2119.00879l-0.0977.03121-0.0303-.0947,1.5616-.502,0.0312,0.0948-0.1289.041a0.34926,0.34926,0,0,0-.1855.123,0.272,0.272,0,0,0-.0469.1612,1.49207,1.49207,0,0,0,.0869.35349l0.7549,2.35061a1.574,1.574,0,0,0,.1416.3515,0.20618,0.20618,0,0,0,.1396.083,0.85125,0.85125,0,0,0,.2696-0.0595l0.2431-.0782a0.717,0.717,0,0,0,.3535-0.2285,0.8733,0.8733,0,0,0,.1621-0.4121,3.18081,3.18081,0,0,0,.003-0.7265Z" transform="translate(-154.76995 -376.93106)"/>
    <path class="o" d="M179.9756,380.62211l0.0156,0.0986a0.40581,0.40581,0,0,0-.2148.1465,3.1309,3.1309,0,0,0-.252.706l-0.4385,1.4942,0.1475,0.9238a1.60209,1.60209,0,0,0,.083.3682,0.26334,0.26334,0,0,0,.1172.1133,0.31471,0.31471,0,0,0,.2021.0244l0.1719-.0274,0.0156,0.0987-1.7011.2695-0.0157-.0986,0.1573-.0245a0.35322,0.35322,0,0,0,.2041-0.0937,0.262,0.262,0,0,0,.0703-0.1514,1.66688,1.66688,0,0,0-.0342-0.3633l-0.1221-.7646-0.9785-1.5313a2.57537,2.57537,0,0,0-.3887-0.5253,0.32708,0.32708,0,0,0-.249-0.0518l-0.0146-.0986,1.4502-.2305,0.0156,0.09769-0.0654.01071a0.269,0.269,0,0,0-.1758.0781,0.14914,0.14914,0,0,0-.0361.1123,2.04681,2.04681,0,0,0,.2636.4922l0.753,1.1738,0.3671-1.2382a1.82684,1.82684,0,0,0,.1123-0.6026,0.17126,0.17126,0,0,0-.0771-0.1191,0.47293,0.47293,0,0,0-.2959-0.041l-0.0146-.0987Z" transform="translate(-154.76995 -376.93106)"/>
    <path class="o" d="M183.6123,380.57321v1.0489h-0.082a1.90161,1.90161,0,0,0-.1592-0.5215,0.686,0.686,0,0,0-.2432-0.2529,0.6231,0.6231,0,0,0-.3008-0.0518h-0.2343v2.9883a1.53566,1.53566,0,0,0,.0263.375,0.2833,0.2833,0,0,0,.1016.13179,0.33534,0.33534,0,0,0,.2041.05571h0.1016v0.0996h-1.6055v-0.0996h0.1016a0.33864,0.33864,0,0,0,.2129-0.0606,0.2663,0.2663,0,0,0,.0937-0.1386,1.48169,1.48169,0,0,0,.0254-0.3633v-2.9883h-0.2344a0.56727,0.56727,0,0,0-.4512.166,1.237,1.237,0,0,0-.246.6602H180.835v-1.0489h2.7773Z" transform="translate(-154.76995 -376.93106)"/>
    <path class="o" d="M185.4873,381.01271l-0.2295,1.5586,0.0596,0.0098a0.45524,0.45524,0,0,0,.456-0.167,1.69264,1.69264,0,0,0,.2666-0.6514l0.0811,0.0117-0.294,2.0068-0.082-.0117a1.78348,1.78348,0,0,0-.0351-0.5527,0.59639,0.59639,0,0,0-.1612-0.3096,0.64355,0.64355,0,0,0-.3232-0.1211l-0.1582,1.0772a2.05048,2.05048,0,0,0-.0352.38869,0.23034,0.23034,0,0,0,.0625.12791,0.31244,0.31244,0,0,0,.1807.0722l0.1826,0.0274a0.96366,0.96366,0,0,0,.7197-0.14651,1.45656,1.45656,0,0,0,.4776-0.70119l0.0859,0.0118-0.3164,1.1962-2.6279-.3857,0.0146-.0986,0.1016,0.0146a0.357,0.357,0,0,0,.2226-0.0283,0.25617,0.25617,0,0,0,.1084-0.124,1.46156,1.46156,0,0,0,.0782-0.3565l0.3701-2.5215a2.37979,2.37979,0,0,0,.0361-0.3232,0.28383,0.28383,0,0,0-.0596-0.167,0.32975,0.32975,0,0,0-.2226-0.1142l-0.1016-.0147,0.0147-.0986,2.5459,0.373-0.167,1.13089-0.0811-.01169a1.63142,1.63142,0,0,0-.0976-0.6211,0.68526,0.68526,0,0,0-.2959-0.3145,1.45346,1.45346,0,0,0-.4639-0.1201Z" transform="translate(-154.76995 -376.93106)"/>
    <path class="o" d="M190.7686,381.97851a0.42866,0.42866,0,0,1-.1309.1826,0.15433,0.15433,0,0,1-.1406.0274,0.87817,0.87817,0,0,1-.2237-0.1778,1.55736,1.55736,0,0,0-.6035-0.373,1.435,1.435,0,0,0-.8799.0137,1.90843,1.90843,0,0,0-.8242.5507,2.47613,2.47613,0,0,0-.5332.9356,2.39437,2.39437,0,0,0-.0937,1.0078,1.61393,1.61393,0,0,0,.3535.8574,1.58424,1.58424,0,0,0,.7656.49809,1.347,1.347,0,0,0,.6719.04781,1.76875,1.76875,0,0,0,.664-0.3115l0.0987-.3184a2.01937,2.01937,0,0,1-.6533.375,0.95178,0.95178,0,0,1-.5577-0.0058,0.79486,0.79486,0,0,1-.4873-0.3809,1.32866,1.32866,0,0,1-.1211-0.7138,3.99168,3.99168,0,0,1,.1817-0.9356,3.036,3.036,0,0,1,.4219-0.875,1.21011,1.21011,0,0,1,.499-0.417,0.79416,0.79416,0,0,1,.5693-0.041,0.83989,0.83989,0,0,1,.5078.45219,1.53427,1.53427,0,0,1,.1172.88281l0.085,0.0263,0.3974-1.2822Z" transform="translate(-154.76995 -376.93106)"/>
    <path class="o" d="M192.8213,385.23831l-0.544,1.0713a1.42463,1.42463,0,0,1-.1875.3125,0.26505,0.26505,0,0,1-.1464.081,0.35153,0.35153,0,0,1-.2188-0.0429l-0.0889-.0459-0.0449.0898,1.4317,0.7266,0.0449-.0889-0.0899-.0449a0.34044,0.34044,0,0,1-.1572-0.1436,0.28059,0.28059,0,0,1-.0322-0.1631,1.61951,1.61951,0,0,1,.1474-0.3466l1.1543-2.2725a1.4719,1.4719,0,0,1,.1875-0.3115,0.25943,0.25943,0,0,1,.1465-0.0811,0.34136,0.34136,0,0,1,.2178.043l0.0889,0.0449,0.0459-.0889-1.4317-.72651-0.0449.08791,0.0889,0.0459a0.34909,0.34909,0,0,1,.1572.1425,0.27736,0.27736,0,0,1,.0332.1641,1.59561,1.59561,0,0,1-.1475.3457l-0.4961.9775-0.9716-.4941,0.4961-.9766a1.42743,1.42743,0,0,1,.1875-0.3125,0.2619,0.2619,0,0,1,.1464-0.081,0.33935,0.33935,0,0,1,.2168.042l0.0899,0.0459,0.0459-.0889-1.4317-.7265-0.0449.0888,0.0918,0.0459a0.3337,0.3337,0,0,1,.1553.1426,0.27109,0.27109,0,0,1,.0312.1631,1.63313,1.63313,0,0,1-.1464.34669l-1.1543,2.27141a1.47721,1.47721,0,0,1-.1875.3125,0.24921,0.24921,0,0,1-.1446.08209,0.34715,0.34715,0,0,1-.2177-0.042l-0.0918-.04689-0.045.08889,1.4317,0.72651,0.0439-.0879-0.0898-.0468a0.33024,0.33024,0,0,1-.1563-0.1416,0.30291,0.30291,0,0,1-.0312-0.1631,1.5032,1.5032,0,0,1,.1465-0.3467l0.5439-1.0713Z" transform="translate(-154.76995 -376.93106)"/>
    <path class="o" d="M196.2266,384.99021l-0.1983,2.8243,0.9805-1.3282a0.97364,0.97364,0,0,0,.2197-0.4306,0.38878,0.38878,0,0,0-.1982-0.34671l0.0595-.08109,0.8194,0.6065-0.0586.0801a0.64515,0.64515,0,0,0-.2617-0.0899,0.33692,0.33692,0,0,0-.1817.0703,1.4277,1.4277,0,0,0-.2617.293l-1.915,2.5918-0.0635-.0469,0.2471-3.83981-1.4698,1.98921a0.626,0.626,0,0,0-.1718.4395,0.39344,0.39344,0,0,0,.1562.2627l0.0606,0.0449-0.0586.0791-0.8828-.65041,0.0595-.08009a0.42865,0.42865,0,0,0,.3623.1026,0.74626,0.74626,0,0,0,.3428-0.2969l1.6201-2.1934,0.0098-.1259a0.74157,0.74157,0,0,0-.0166-0.2715,0.40191,0.40191,0,0,0-.1387-0.1719l0.0596-.0811Z" transform="translate(-154.76995 -376.93106)"/>
    <path class="o" d="M197.002,390.60061l-0.06941.0723-1.1553-1.1153,0.0694-.0722,0.0732,0.0722a0.36808,0.36808,0,0,0,.1983.10739,0.26558,0.26558,0,0,0,.1601-0.039,1.4887,1.4887,0,0,0,.2705-0.24419l1.7696-1.8349a1.75607,1.75607,0,0,0,.2431-0.2862,0.27129,0.27129,0,0,0,.0176-0.165,0.34188,0.34188,0,0,0-.1084-0.1826l-0.0742-.0713,0.0693-.0713,1.1553,1.1133-0.0693.0723-0.0723-.0713a0.35461,0.35461,0,0,0-.1982-0.1055,0.25675,0.25675,0,0,0-.1612.0361,1.49906,1.49906,0,0,0-.2705.2442l-1.7695,1.8349a1.55255,1.55255,0,0,0-.2412.2881,0.26833,0.26833,0,0,0-.0196.1641,0.33583,0.33583,0,0,0,.1094.1826Z" transform="translate(-154.76995 -376.93106)"/>
    <path class="o" d="M202.06149,390.63571l-1.0469.8399-0.05459-.0684a1.54119,1.54119,0,0,0,.39639-0.7978,0.8395,0.8395,0,0,0-.1689-0.6592,0.78941,0.78941,0,0,0-.4951-0.28321,1.19263,1.19263,0,0,0-.6465.06541,3.042,3.042,0,0,0-.8398.4893,3.986,3.986,0,0,0-.6729.6748,1.321,1.321,0,0,0-.2988.6592,0.79379,0.79379,0,0,0,.1904.5879,0.956,0.956,0,0,0,.46.3173,2.0293,2.0293,0,0,0,.75.0537l-0.25979.209a1.77481,1.77481,0,0,1-.7246-0.1132,1.366,1.366,0,0,1-.5303-0.4161,1.57875,1.57875,0,0,1-.3555-0.8408,1.603,1.603,0,0,1,.1866-0.9082,2.38656,2.38656,0,0,1,.6416-0.7832,2.47769,2.47769,0,0,1,.9648-0.4766,1.88159,1.88159,0,0,1,.9912.0049,1.42151,1.42151,0,0,1,.7373.4805,1.54744,1.54744,0,0,1,.291.6465,0.9413,0.9413,0,0,0,.086.2724,0.16126,0.16126,0,0,0,.1328.0567,0.434,0.434,0,0,0,.2109-0.0791Z" transform="translate(-154.76995 -376.93106)"/>
    <path class="o" d="M200.60059,395.80661a0.33152,0.33152,0,0,1-.0449-0.208,0.27017,0.27017,0,0,1,.06931-0.1504,1.54809,1.54809,0,0,1,.32129-0.1953l2.26071-1.1777a1.418,1.418,0,0,1,.334-0.1445,0.25041,0.25041,0,0,1,.16509.0156,0.35333,0.35333,0,0,1,.1523.1621l0.0469,0.0918,0.0888-.0469-0.7412-1.4238-0.08789.0469,0.04689,0.0898a0.34383,0.34383,0,0,1,.0449.209,0.27313,0.27313,0,0,1-.0693.1504,1.76621,1.76621,0,0,1-.3213.1953l-2.2607,1.1777a1.64791,1.64791,0,0,1-.335.1446,0.26326,0.26326,0,0,1-.1631-0.0147,0.35513,0.35513,0,0,1-.1533-0.164l-0.0478-.0928-0.0889.0469,0.7422,1.4238,0.0879-.0449Z" transform="translate(-154.76995 -376.93106)"/>
    <path class="o" d="M204.35639,394.83891l-0.0937.0332a0.41652,0.41652,0,0,1,.0186.2197,0.71774,0.71774,0,0,1-.1377.2344l-0.0772.1006-2.5693.9199a0.75733,0.75733,0,0,1-.4483.0566,0.42507,0.42507,0,0,1-.2431-0.2871l-0.0938.0332,0.3692,1.0313,0.0937-.0332-0.0254-.0704a0.3997,0.3997,0,0,1,.01561-0.3066,0.64018,0.64018,0,0,1,.38869-0.26951l2.3281-.834-2.3437,3.05271,0.0273,0.0742,3.0332-1.08591a1.39907,1.39907,0,0,1,.3819-0.09759,0.33106,0.33106,0,0,1,.1894.0419,0.64246,0.64246,0,0,1,.166.2198l0.0938-.0332-0.3428-.96-0.0937.0342a0.3918,0.3918,0,0,1-.0293.3984,0.97673,0.97673,0,0,1-.42189.2354l-1.55471.5566,1.7373-2.2334Z" transform="translate(-154.76995 -376.93106)"/>
    <path class="o" d="M206.06449,400.47071a0.57688,0.57688,0,0,1-.2276-0.0225,0.10794,0.10794,0,0,1-.0625-0.08,0.53847,0.53847,0,0,1,.0488-0.2286,1.19459,1.19459,0,0,0,.0733-0.2812,0.94049,0.94049,0,0,0-.0117-0.2949,0.8479,0.8479,0,0,0-.4522-0.60351,1.19485,1.19485,0,0,0-.8242-0.11229,1.22788,1.22788,0,0,0-.4688.19329,1.30534,1.30534,0,0,0-.34659.35451,3.42672,3.42672,0,0,0-.31641.6768,2.662,2.662,0,0,1-.2139.46869,0.84914,0.84914,0,0,1-.2051.22171,0.64555,0.64555,0,0,1-.248.1074,0.59443,0.59443,0,0,1-.4278-0.0683,0.50706,0.50706,0,0,1-.248-0.3633,0.81982,0.81982,0,0,1,.1973-0.6651,1.83309,1.83309,0,0,1,.8447-0.5576l-0.0166-.081-1.4307.28219,0.0156,0.081a0.42526,0.42526,0,0,1,.1944.07131,0.20512,0.20512,0,0,1,.081.1133,0.40645,0.40645,0,0,1-.02149.1846,1.78247,1.78247,0,0,0-.07421.3467,1.03746,1.03746,0,0,0,.0166.2773,0.96626,0.96626,0,0,0,.4912.6797,1.31747,1.31747,0,0,0,1.5059-.1816,2.27876,2.27876,0,0,0,.4756-0.8409,5.08434,5.08434,0,0,1,.2305-0.5498,0.89678,0.89678,0,0,1,.2207-0.2588,0.56016,0.56016,0,0,1,.2138-0.08881,0.52481,0.52481,0,0,1,.378.06251,0.46217,0.46217,0,0,1,.2236.3301,0.7468,0.7468,0,0,1-.18069.6035,1.48045,1.48045,0,0,1-.70021.4687l0.0186,0.0918,1.2597-.2724Z" transform="translate(-154.76995 -376.93106)"/>
    <path class="o" d="M206.30269,404.33891l-1.0468.0566-0.00489-.082a1.94483,1.94483,0,0,0,.51269-0.18651,0.67891,0.67891,0,0,0,.2392-0.25689,0.62164,0.62164,0,0,0,.0352-0.3027l-0.0117-.23441-2.98439.16111a1.52387,1.52387,0,0,0-.37311.04689,0.2705,0.2705,0,0,0-.125.10651,0.33556,0.33556,0,0,0-.04589.2089l0.00489,0.10059-0.0986.00491-0.0869-1.6035,0.09961-.0059,0.00589,0.1036a0.34506,0.34506,0,0,0,.0712.20889,0.26432,0.26432,0,0,0,.1436.085,1.45455,1.45455,0,0,0,.36431.00591l2.98339-.1592-0.0118-.2344a0.56526,0.56526,0,0,0-.1894-0.4414,1.24861,1.24861,0,0,0-.6729-0.21091l-0.0049-.08789,1.0469-.0557Z" transform="translate(-154.76995 -376.93106)"/>
    <path class="o" d="M202.38379,406.41311l-0.0986-.0069,0.1123-1.6005,0.0996,0.0058-0.0069.1016a0.36015,0.36015,0,0,0,.045.2217,0.27215,0.27215,0,0,0,.13181.0986,1.55953,1.55953,0,0,0,.36029.0508l2.542,0.1787a1.59658,1.59658,0,0,0,.377.0029,0.26873,0.26873,0,0,0,.13771-0.09181,0.34221,0.34221,0,0,0,.07029-0.20109l0.0068-.1026,0.0996,0.0068-0.1132,1.6016-0.0987-.0058,0.0069-.1026a0.35458,0.35458,0,0,0-.045-0.2178,0.24974,0.24974,0,0,0-.1318-0.10151,1.45266,1.45266,0,0,0-.3613-0.05079l-2.542-.1797a1.661,1.661,0,0,0-.376-0.001,0.27313,0.27313,0,0,0-.1377.0909,0.33231,0.33231,0,0,0-.0703.2011Z" transform="translate(-154.76995 -376.93106)"/>
    <path class="o" d="M205.53029,410.20021l-1.02829-.207,0.01659-.0801a1.86751,1.86751,0,0,0,.5419-0.0527,0.68091,0.68091,0,0,0,.2959-0.1875,0.621,0.621,0,0,0,.1104-0.2852l0.0469-.2305-2.92969-.5888a1.483,1.483,0,0,0-.37311-0.0479,0.27525,0.27525,0,0,0-.1484.0723,0.33336,0.33336,0,0,0-.0967.1894l-0.0195.0996-0.0977-.0205,0.31641-1.5732,0.09869,0.0195-0.0205.1006a0.33877,0.33877,0,0,0,.0175.2197,0.26772,0.26772,0,0,0,.1172.1192,1.42935,1.42935,0,0,0,.3516.0957l2.9297,0.5908,0.0459-.2295a0.562,0.562,0,0,0-.0733-0.4746,1.253,1.253,0,0,0-.5986-0.3731l0.0166-.0859,1.0283,0.208Z" transform="translate(-154.76995 -376.93106)"/>
    <path class="o" d="M205.30859,411.02341l-0.5625,1.4854-0.0928-.0352,0.0274-.0742a0.45407,0.45407,0,0,0,.0429-0.248,0.25233,0.25233,0,0,0-.0879-0.1368,1.87362,1.87362,0,0,0-.3818-0.1757l-1.7705-.67a2.35054,2.35054,0,0,0-.6641-0.1855,0.61261,0.61261,0,0,0-.3349.0937,0.56648,0.56648,0,0,0-.2305.29689,0.64786,0.64786,0,0,0-.0195.44631,0.8437,0.8437,0,0,0,.2724.3818,2.94313,2.94313,0,0,0,.7764.3887l1.4736,0.5586a1.16978,1.16978,0,0,0,.36621.0938,0.32369,0.32369,0,0,0,.18459-0.045,0.525,0.525,0,0,0,.1621-0.2421l0.0928,0.0351-0.376.9912-0.0927-.0351,0.0224-.0586a0.3492,0.3492,0,0,0,.0147-0.2276,0.39278,0.39278,0,0,0-.1416-0.1875,1.23826,1.23826,0,0,0-.3008-0.1425l-1.3731-.5215a4.842,4.842,0,0,1-.8955-0.416,1.10309,1.10309,0,0,1-.3974-0.5215,1.07778,1.07778,0,0,1,.0302-0.7959,1.18961,1.18961,0,0,1,.3448-0.5303,1.01,1.01,0,0,1,.5859-0.2256,1.97985,1.97985,0,0,1,.7607.1582l1.7705,0.6709a1.69486,1.69486,0,0,0,.4043.1211,0.2713,0.2713,0,0,0,.1592-0.0488,0.50583,0.50583,0,0,0,.1377-0.2334Z" transform="translate(-154.76995 -376.93106)"/>
    <path class="o" d="M202.46389,417.06451l-0.9092-.52251,0.041-.07229a1.94629,1.94629,0,0,0,.5322.1231,0.67846,0.67846,0,0,0,.3399-0.084,0.63467,0.63467,0,0,0,.1953-0.2354l0.1162-.2041-2.5898-1.4902a1.47723,1.47723,0,0,0-.3389-0.16311,0.26751,0.26751,0,0,0-.1641.02251,0.3174,0.3174,0,0,0-.1504.1484l-0.0507.0869-0.086-.04781,0.8008-1.39259,0.0859,0.0508-0.0507.0879a0.32488,0.32488,0,0,0-.0528.21289,0.26334,0.26334,0,0,0,.0723.15131,1.50949,1.50949,0,0,0,.3027.2041l2.5899,1.4893,0.1171-.2041a0.5595,0.5595,0,0,0,.0811-0.4727,1.23035,1.23035,0,0,0-.4492-0.542l0.0439-.0761,0.9092,0.5224Z" transform="translate(-154.76995 -376.93106)"/>
    <path class="o" d="M200.94139,418.71191a1.44386,1.44386,0,0,1-.3369.3399,0.69374,0.69374,0,0,1-.4209.0986,1.65218,1.65218,0,0,1-.5859-0.2295l-0.0518.0645,0.8936,0.7128,1.6044-2.0097-0.0781-.06251-0.0635.08011a0.331,0.331,0,0,1-.2109.1347,0.29156,0.29156,0,0,1-.1728-0.0322,2.596,2.596,0,0,1-.2618-0.1943l-1.9922-1.5918a1.52789,1.52789,0,0,1-.2675-0.2461,0.26609,0.26609,0,0,1-.0537-0.1563,0.362,0.362,0,0,1,.0879-0.207l0.0644-.08011-0.0771-.06149-1.6582,2.0742,0.874,0.876,0.0537-.0664a1.4714,1.4714,0,0,1-.3652-0.7676,0.95909,0.95909,0,0,1,.2363-0.6934l0.1152-.1455a0.30569,0.30569,0,0,1,.1543-0.1201,0.23027,0.23027,0,0,1,.1406.0117,1.89734,1.89734,0,0,1,.3184.22659l0.8506,0.67871a0.63277,0.63277,0,0,1-.2676.2178,0.58962,0.58962,0,0,1-.3486-0.0176,1.75755,1.75755,0,0,1-.4942-0.2471l-0.0508.0645,1.584,1.2656,0.0508-.0644a1.70726,1.70726,0,0,1-.4277-0.5577,0.45491,0.45491,0,0,1,.0859-0.4785l0.0371-.0478,1.2315,0.9843Z" transform="translate(-154.76995 -376.93106)"/>
  </g>
  <path class="p" d="M184.4795,415.27731l5.332-4.6337a5.94146,5.94146,0,0,0,2.3692-4.7793c0.0293-1.6788-.1641-7.4209,0-10.4034a3.89552,3.89552,0,0,1,1.248-2.8037l0.4395-.333,0.3564-.2431-23.7969.0058,0.3545,0.2383,0.4424,0.33979a3.85887,3.85887,0,0,1,1.2442,2.80081c0.1669,2.9834-.0293,8.7246,0,10.4014a5.95063,5.95063,0,0,0,2.3671,4.7812l5.1612,4.5352" transform="translate(-154.76995 -376.93106)"/>
  <path class="a" d="M170.9219,392.05761c1.6562,1.4278,1.4638,4.2891,1.4638,4.2891h9.8399v-4.2891H170.9219Zm8.3701,2.5371a0.27824,0.27824,0,0,1-.2813.2754,0.267,0.267,0,0,1-.2568-0.2178h-1.208v1.0811a0.26471,0.26471,0,0,1,.2109.248,0.27785,0.27785,0,0,1-.2812.2735,0.27067,0.27067,0,0,0-.5391,0,0.27792,0.27792,0,0,1-.2812-0.2735,0.26252,0.26252,0,0,1,.1875-0.2382v-1.0909h-1.1377a0.267,0.267,0,0,1-.2569.2178,0.27822,0.27822,0,0,1-.2812-0.2754,0.26217,0.26217,0,0,1,.1992-0.2402v-0.043a0.26255,0.26255,0,0,1-.1992-0.2422,0.27783,0.27783,0,0,1,.2812-0.2734,0.26372,0.26372,0,0,1,.2373.1709h1.1573v-1.0674a0.26245,0.26245,0,0,1-.1875-0.2373,0.278,0.278,0,0,1,.2812-0.2744,0.27057,0.27057,0,0,0,.5391,0,0.278,0.278,0,0,1,.2812.2744,0.26345,0.26345,0,0,1-.2109.2461v1.0586h1.2275a0.26394,0.26394,0,0,1,.2373-0.1709,0.27786,0.27786,0,0,1,.2813.2734,0.26977,0.26977,0,0,1-.2461.2608v0.0058A0.26938,0.26938,0,0,1,179.292,394.59471Z" transform="translate(-154.76995 -376.93106)"/>
</svg>
