<?xml version="1.0" standalone="no"?>
<!DOCTYPE svg PUBLIC "-//W3C//DTD SVG 20010904//EN"
 "http://www.w3.org/TR/2001/REC-SVG-20010904/DTD/svg10.dtd">
<svg version="1.0" xmlns="http://www.w3.org/2000/svg"
 width="700.000000pt" height="700.000000pt" viewBox="0 0 700.000000 700.000000"
 preserveAspectRatio="xMidYMid meet">
<metadata>
Created by potrace 1.11, written by Peter Selinger 2001-2013
</metadata>
<g transform="translate(0.000000,700.000000) scale(0.100000,-0.100000)"
fill="#000000" stroke="none">
<path d="M0 3500 l0 -3500 257 2 258 3 0 825 0 825 3243 3 3242 2 0 68 0 67
-2367 0 c-1303 0 -2375 1 -2384 3 -14 3 -16 51 -15 465 l1 462 2383 3 2383 2
-3 67 -3 68 -3240 0 -3240 0 0 673 c0 594 1 675 15 681 8 3 1467 6 3243 6
l3227 -1 0 1388 0 1388 -3500 0 -3500 0 0 -3500z"/>
<path d="M2089 966 c-2 -2 -29 -6 -59 -10 -86 -9 -216 -43 -312 -82 -360 -144
-638 -438 -763 -805 l-24 -69 1280 0 c703 0 1279 4 1279 8 0 5 -9 37 -21 73
-114 346 -416 660 -771 800 -47 18 -218 65 -278 76 -31 5 -326 13 -331 9z"/>
<path d="M5165 963 c-451 -57 -833 -319 -1036 -709 -25 -49 -99 -235 -99 -249
0 -3 576 -5 1280 -5 704 0 1280 2 1280 3 0 2 -9 33 -21 68 -138 425 -541 783
-974 869 -27 5 -61 12 -75 16 -29 7 -310 13 -355 7z"/>
</g>
</svg>
