<?xml version="1.0" standalone="no"?>
<!DOCTYPE svg PUBLIC "-//W3C//DTD SVG 20010904//EN"
 "http://www.w3.org/TR/2001/REC-SVG-20010904/DTD/svg10.dtd">
<svg version="1.0" xmlns="http://www.w3.org/2000/svg"
 width="4900.000000pt" height="4900.000000pt" viewBox="0 0 4900.000000 4900.000000"
 preserveAspectRatio="xMidYMid meet">
<metadata>
Created by potrace 1.11, written by Peter Selinger 2001-2013
</metadata>
<g transform="translate(0.000000,4900.000000) scale(0.100000,-0.100000)"
fill="#000000" stroke="none">
<path d="M0 24500 l0 -24500 2335 0 2335 0 0 6415 0 6415 22165 0 22165 0 0
665 0 665 -22175 0 -22175 0 0 1145 0 1145 22175 0 22175 0 0 16275 0 16275
-24500 0 -24500 0 0 -24500z"/>
<path d="M16410 9054 c-923 -37 -1761 -191 -2609 -479 -2336 -794 -4249 -2520
-5279 -4765 -512 -1115 -788 -2312 -819 -3547 l-6 -263 9008 0 9008 0 -6 258
c-42 1646 -508 3193 -1383 4593 -968 1549 -2446 2801 -4139 3507 -934 389
-1882 611 -2915 682 -154 11 -717 20 -860 14z"/>
<path d="M37905 9054 c-731 -37 -1255 -111 -1866 -264 -1806 -453 -3429 -1450
-4636 -2850 -782 -907 -1370 -1948 -1741 -3080 -219 -667 -358 -1347 -417
-2035 -17 -202 -35 -568 -35 -722 l0 -103 9007 0 9006 0 -6 272 c-7 312 -18
474 -52 778 -253 2278 -1376 4390 -3120 5866 -1471 1245 -3251 1973 -5185
2119 -194 15 -803 27 -955 19z"/>
</g>
</svg>
